<svg width="48" height="48" viewBox="0 0 48 48" fill="none" xmlns="http://www.w3.org/2000/svg">
<path d="M28.7999 28.8L19.2 19.2" stroke="black" stroke-width="2" stroke-linecap="round" stroke-linejoin="round"/>
<path d="M37.314 42.97C36.564 43.7203 35.5466 44.1419 34.4858 44.1421C33.4249 44.1423 32.4073 43.721 31.657 42.971C30.9067 42.221 30.4851 41.2036 30.4849 40.1427C30.4848 39.0818 30.906 38.0643 31.656 37.314L28.122 40.85C27.3717 41.6003 26.3541 42.0218 25.293 42.0218C24.232 42.0218 23.2143 41.6003 22.464 40.85C21.7137 40.0997 21.2922 39.0821 21.2922 38.021C21.2922 36.9599 21.7137 35.9423 22.464 35.192L35.192 22.464C35.9423 21.7137 36.96 21.2922 38.021 21.2922C39.0821 21.2922 40.0997 21.7137 40.85 22.464C41.6003 23.2143 42.0219 24.2319 42.0219 25.293C42.0219 26.3541 41.6003 27.3717 40.85 28.122L37.314 31.656C38.0643 30.906 39.0819 30.4847 40.1428 30.4849C41.2036 30.4851 42.221 30.9067 42.971 31.657C43.7211 32.4073 44.1423 33.4248 44.1421 34.4857C44.142 35.5466 43.7203 36.564 42.97 37.314L37.314 42.97Z" stroke="black" stroke-width="2" stroke-linecap="round" stroke-linejoin="round"/>
<path d="M43 43L40.2 40.2" stroke="black" stroke-width="2" stroke-linecap="round" stroke-linejoin="round"/>
<path d="M7.8 7.8L5 5" stroke="black" stroke-width="2" stroke-linecap="round" stroke-linejoin="round"/>
<path d="M12.808 25.536C12.0577 26.2863 11.0401 26.7078 9.97901 26.7078C8.91793 26.7078 7.90031 26.2863 7.15001 25.536C6.39972 24.7857 5.9782 23.7681 5.9782 22.707C5.9782 21.6459 6.39972 20.6283 7.15001 19.878L10.686 16.344C10.3145 16.7154 9.87348 17.01 9.38813 17.2109C8.90278 17.4118 8.38261 17.5152 7.85731 17.5151C6.79641 17.5149 5.77905 17.0933 5.02901 16.343C4.65763 15.9715 4.36307 15.5305 4.16213 15.0451C3.96119 14.5598 3.85782 14.0396 3.85791 13.5143C3.8581 12.4534 4.27972 11.436 5.03001 10.686L10.686 5.03001C11.436 4.27972 12.4534 3.8581 13.5143 3.85791C14.0396 3.85782 14.5598 3.96119 15.0451 4.16213C15.5305 4.36307 15.9715 4.65763 16.343 5.02901C16.7145 5.40039 17.0092 5.84131 17.2104 6.32659C17.4115 6.81187 17.515 7.33201 17.5151 7.85731C17.5152 8.38261 17.4118 8.90278 17.2109 9.38813C17.01 9.87348 16.7154 10.3145 16.344 10.686L19.878 7.15001C20.6283 6.39972 21.6459 5.9782 22.707 5.9782C23.7681 5.9782 24.7857 6.39972 25.536 7.15001C26.2863 7.90031 26.7078 8.91793 26.7078 9.97901C26.7078 11.0401 26.2863 12.0577 25.536 12.808L12.808 25.536Z" stroke="black" stroke-width="2" stroke-linecap="round" stroke-linejoin="round"/>
</svg>
