<svg width="56" height="54" viewBox="0 0 56 54" fill="none" xmlns="http://www.w3.org/2000/svg">
			<path
				d="M30.6643 46.5448L34.7982 52.2559C34.9792 52.5059 35.3742 52.3817 35.3794 52.0731L35.4989 45.0238C35.5225 43.6344 35.0948 42.2749 34.28 41.1492L30.146 35.4381C29.9651 35.1881 29.5701 35.3124 29.5648 35.6209L29.4453 42.6702C29.4218 44.0596 29.8495 45.4191 30.6643 46.5448Z"
				fill="#C78E48"
			/>
			<path
				d="M30.6643 46.5448L34.7982 52.2559C34.9792 52.5059 35.3742 52.3817 35.3794 52.0731L35.4989 45.0238C35.5225 43.6344 35.0948 42.2749 34.28 41.1492L30.146 35.4381C29.9651 35.1881 29.5701 35.3124 29.5648 35.6209L29.4453 42.6702C29.4218 44.0596 29.8495 45.4191 30.6643 46.5448Z"
				fill="#C78E48"
			/>
			<path
				d="M46.9823 33.7807L53.9953 33.0561C54.3022 33.0244 54.3921 32.6202 54.1275 32.4614L48.0824 28.8332C46.8909 28.1181 45.4997 27.8088 44.1175 27.9516L37.1044 28.6761C36.7975 28.7078 36.7076 29.1121 36.9722 29.2709L43.0173 32.899C44.2088 33.6141 45.6 33.9235 46.9823 33.7807Z"
				fill="#C78E48"
			/>
			<path
				d="M46.9823 33.7807L53.9953 33.0561C54.3022 33.0244 54.3921 32.6202 54.1275 32.4614L48.0824 28.8332C46.8909 28.1181 45.4997 27.8088 44.1175 27.9516L37.1044 28.6761C36.7975 28.7078 36.7076 29.1121 36.9722 29.2709L43.0173 32.899C44.2088 33.6141 45.6 33.9235 46.9823 33.7807Z"
				fill="#C78E48"
			/>
			<path
				d="M43.9718 15.7675L46.8508 9.33178C46.9768 9.05009 46.6717 8.77014 46.4019 8.91988L40.2372 12.341C39.0222 13.0153 38.0587 14.0655 37.4913 15.3339L34.6122 21.7697C34.4862 22.0514 34.7913 22.3313 35.0612 22.1816L41.2258 18.7604C42.4408 18.0861 43.4044 17.0359 43.9718 15.7675Z"
				fill="#C78E48"
			/>
			<path
				d="M43.9718 15.7675L46.8508 9.33178C46.9768 9.05009 46.6717 8.77014 46.4019 8.91988L40.2372 12.341C39.0222 13.0153 38.0587 14.0655 37.4913 15.3339L34.6122 21.7697C34.4862 22.0514 34.7913 22.3313 35.0612 22.1816L41.2258 18.7604C42.4408 18.0861 43.4044 17.0359 43.9718 15.7675Z"
				fill="#C78E48"
			/>
			<path
				d="M23.68 7.45523L19.546 1.74406C19.365 1.49408 18.97 1.61835 18.9648 1.9269L18.8453 8.97622C18.8217 10.3656 19.2495 11.7251 20.0642 12.8508L24.1982 18.5619C24.3792 18.8119 24.7742 18.6876 24.7794 18.3791L24.8989 11.3298C24.9225 9.94039 24.4948 8.58086 23.68 7.45523Z"
				fill="#C78E48"
			/>
			<path
				d="M23.68 7.45523L19.546 1.74406C19.365 1.49408 18.97 1.61835 18.9648 1.9269L18.8453 8.97622C18.8217 10.3656 19.2495 11.7251 20.0642 12.8508L24.1982 18.5619C24.3792 18.8119 24.7742 18.6876 24.7794 18.3791L24.8989 11.3298C24.9225 9.94039 24.4948 8.58086 23.68 7.45523Z"
				fill="#C78E48"
			/>
			<path
				d="M8.66813 22.2727L1.65512 22.9972C1.34816 23.029 1.25828 23.4332 1.52287 23.592L7.56801 27.2201C8.75947 27.9352 10.1507 28.2446 11.5329 28.1018L18.5459 27.3772C18.8529 27.3455 18.9428 26.9413 18.6782 26.7825L12.6331 23.1543C11.4416 22.4392 10.0503 22.1299 8.66813 22.2727Z"
				fill="#C78E48"
			/>
			<path
				d="M8.66813 22.2727L1.65512 22.9972C1.34816 23.029 1.25828 23.4332 1.52287 23.592L7.56801 27.2201C8.75947 27.9352 10.1507 28.2446 11.5329 28.1018L18.5459 27.3772C18.8529 27.3455 18.9428 26.9413 18.6782 26.7825L12.6331 23.1543C11.4416 22.4392 10.0503 22.1299 8.66813 22.2727Z"
				fill="#C78E48"
			/>
			<path
				d="M11.6786 40.2859L8.79956 46.7216C8.67354 47.0033 8.97867 47.2833 9.24849 47.1335L15.4131 43.7124C16.6282 43.0381 17.5917 41.9879 18.1591 40.7195L21.0382 34.2837C21.1642 34.002 20.859 33.7221 20.5892 33.8718L14.4246 37.293C13.2096 37.9673 12.246 39.0175 11.6786 40.2859Z"
				fill="#C78E48"
			/>
			<path
				d="M11.6786 40.2859L8.79956 46.7216C8.67354 47.0033 8.97867 47.2833 9.24849 47.1335L15.4131 43.7124C16.6282 43.0381 17.5917 41.9879 18.1591 40.7195L21.0382 34.2837C21.1642 34.002 20.859 33.7221 20.5892 33.8718L14.4246 37.293C13.2096 37.9673 12.246 39.0175 11.6786 40.2859Z"
				fill="#C78E48"
			/>
		</svg>