<svg width="38" height="38" viewBox="0 0 38 38" fill="none" xmlns="http://www.w3.org/2000/svg">
<path d="M25.9668 21.6917C27.2654 20.7157 28.3145 19.4462 29.0284 17.987C29.7423 16.5278 30.1006 14.9204 30.0741 13.2961C30.0475 11.6719 29.6368 10.077 28.8757 8.64192C28.1145 7.20684 27.0244 5.97232 25.6946 5.03934C24.3648 4.10636 22.833 3.50143 21.2245 3.27402C19.616 3.04661 17.9766 3.20318 16.4402 3.73093C14.9039 4.25867 13.5143 5.14261 12.3851 6.31043C11.2559 7.47825 10.4192 8.89678 9.94343 10.45C8.20176 15.4058 8.70843 16.625 4.90843 20.0767C4.15122 20.6974 3.60435 21.5371 3.34268 22.4806C3.08101 23.4241 3.11732 24.4255 3.44665 25.3476C3.77597 26.2697 4.38221 27.0675 5.1824 27.6318C5.98258 28.1961 6.93761 28.4993 7.91676 28.5C14.2501 28.5 21.2168 25.65 25.9668 21.6917Z" stroke="black" stroke-width="2" stroke-linecap="round" stroke-linejoin="round"/>
<path d="M29.2917 9.5L32.7592 16.625C33.4229 18.6657 33.4301 20.8631 32.7797 22.9081C32.1293 24.9531 30.854 26.7427 29.1334 28.025C24.3834 31.9833 17.4167 34.8333 11.0834 34.8333C10.2019 34.8321 9.33806 34.5856 8.58866 34.1215C7.83925 33.6573 7.23379 32.9937 6.84005 32.205L3.80005 26.125" stroke="black" stroke-width="2" stroke-linecap="round" stroke-linejoin="round"/>
<path d="M19.7916 17.4167C21.9777 17.4167 23.7499 15.6445 23.7499 13.4583C23.7499 11.2722 21.9777 9.5 19.7916 9.5C17.6055 9.5 15.8333 11.2722 15.8333 13.4583C15.8333 15.6445 17.6055 17.4167 19.7916 17.4167Z" stroke="black" stroke-width="2" stroke-linecap="round" stroke-linejoin="round"/>
</svg>
