<?xml version="1.0" encoding="utf-8"?>
<!-- Svg Vector Icons : http://www.onlinewebfonts.com/icon -->
<!DOCTYPE svg PUBLIC "-//W3C//DTD SVG 1.1//EN" "http://www.w3.org/Graphics/SVG/1.1/DTD/svg11.dtd">
<svg version="1.1" xmlns="http://www.w3.org/2000/svg" xmlns:xlink="http://www.w3.org/1999/xlink" x="0px" y="0px" viewBox="0 0 256 256" enable-background="new 0 0 256 256" xml:space="preserve">
<metadata> Svg Vector Icons : http://www.onlinewebfonts.com/icon </metadata>
<g><g><path fill="#000000" d="M75.5,43.9c0,0,1-6.6-3.6-6.9c0,0-15.2-1.8-16.2,1.9l-3.7,41.5c0,0-1.2,8.3,1.2,10.3c0,0,2.2,2.7,20,2.2l28.6,0.7l37.3,34.4c0,0,13.4,10.8,26.5,0l45.2-28.7l1.8,42.3l-5.8-12.6c0,0,1.1-12.8-9.4-14.5c0,0-10.4-2.2-14.5,6.1c0,0-3.3,8.9,3.6,13.9c0,0,6.2,3.9,13.1,1.4l2.4,5.7l-174.6,64c0,0-22,3.6-16.5,21.5c0,0,4,17.1,23.1,10.2c0,0,10-4.4,7.4-17.8c0,0-1.1-4.7-3.2-6.3l165.9-63l23.1,70.1c0,0-6.7,5.5-1.1,14.4c0,0,5.7,7.7,15.2,2.4c0,0,7.9-4.6,3.4-14.2c0,0-2.6-4.8-8.2-6l-13.6-42.5c0,0,13.2,2.9,14.9-9.4l-0.2-85.1c0,0-0.5-16.8-13.9-17.4c0,0-5.8-1.1-12.8,2.9l-47.3,27.5c0,0-12.3-5.2-30.8-28.6c0,0-5.1-9.8-13.4-10.4c0,0-5.2,0.2-11.5,5.2c0,0-7.9,4.9-13.7,12.4l-20.5,0.3L75.5,43.9z"/><path fill="#000000" d="M178.7,147.5c0,0,7.9-3.3,6.9-8.1c0,0-2.2-10.1-6.9-12.1c0,0-2.9-1.4-8.1,0.8L37.7,178c0,0-4.3,1.4-3.5,6.4c0,0,1.3,8.7,5.8,11.6c0,0,3,2.4,8,0L178.7,147.5z"/><path fill="#000000" d="M79.2,37.5c0,11.2,9.1,20.3,20.3,20.3c11.2,0,20.3-9.1,20.3-20.3s-9.1-20.3-20.3-20.3C88.3,17.3,79.2,26.3,79.2,37.5L79.2,37.5z"/></g></g>
</svg>