<?xml version="1.0" encoding="iso-8859-1"?>
<!-- Generator: Adobe Illustrator 18.1.1, SVG Export Plug-In . SVG Version: 6.00 Build 0)  -->
<svg version="1.1" id="Capa_1" xmlns="http://www.w3.org/2000/svg" xmlns:xlink="http://www.w3.org/1999/xlink" x="0px" y="0px"
	 viewBox="0 0 63.999 63.999" style="enable-background:new 0 0 63.999 63.999;" xml:space="preserve">
<g>
	<path style="fill:#010002;" d="M52,27.164c-1.385,0-2.709,0.248-3.949,0.682L44,20.485v-2.986h4.457
		c0.645,0,1.168,0.523,1.168,1.166c0,0.645-0.523,1.168-1.168,1.168c-1.104,0-2,0.895-2,2c0,1.104,0.896,2,2,2
		c2.85,0,5.168-2.318,5.168-5.168c0-2.52-1.816-4.617-4.207-5.068c-0.188-0.059-0.381-0.098-0.586-0.098H42c-1.105,0-2,0.896-2,2
		v3.5H25.145l-0.973-2.166h3.16c1.105,0,2-0.896,2-2c0-1.105-0.895-2-2-2h-6.289c-0.002,0-0.006,0-0.008,0h-6.203
		c-1.104,0-2,0.895-2,2c0,1.104,0.896,2,2,2h4.955l1.123,2.502c-0.27,0.176-0.502,0.408-0.662,0.699l-4.301,7.813
		c-1.238-0.434-2.563-0.682-3.947-0.682c-6.617,0-12,5.383-12,12s5.383,12,12,12c5.934,0,10.863-4.334,11.818-10h8.176
		c0.002,0,0.004,0.002,0.006,0.002c0.086,0,0.174-0.016,0.26-0.027c0.049-0.006,0.1-0.006,0.146-0.016
		c0.023-0.006,0.047-0.016,0.07-0.021c0.039-0.01,0.076-0.025,0.117-0.037c0.068-0.021,0.139-0.039,0.205-0.068
		c0.006-0.004,0.014-0.004,0.02-0.006c0.041-0.02,0.074-0.045,0.113-0.066c0.037-0.02,0.076-0.039,0.113-0.061
		c0.031-0.02,0.064-0.037,0.096-0.059c0.055-0.039,0.104-0.084,0.152-0.127c0.041-0.035,0.086-0.064,0.125-0.104
		c0.006-0.006,0.012-0.016,0.02-0.023c0.047-0.049,0.086-0.102,0.127-0.154c0.037-0.049,0.078-0.094,0.111-0.145
		c0.018-0.031,0.035-0.061,0.053-0.092c0.006-0.012,0.016-0.02,0.023-0.031l8.248-14.984l2.549,4.631
		c-2.768,2.199-4.549,5.588-4.549,9.389c0,6.617,5.383,12,12,12s12-5.383,12-12S58.617,27.164,52,27.164z M38.616,22.998
		l-6.434,11.688L26.94,22.998H38.616z M22.836,23.625l6.074,13.539h-5.092c-0.502-2.979-2.098-5.584-4.367-7.389L22.836,23.625z
		 M19.737,37.164h-4.354l2.098-3.811C18.561,34.373,19.354,35.685,19.737,37.164z M12,47.164c-4.412,0-8-3.588-8-8
		c0-4.41,3.588-8,8-8c0.684,0,1.344,0.096,1.979,0.258l-3.73,6.777c-0.016,0.029-0.023,0.061-0.039,0.09
		c-0.031,0.063-0.059,0.127-0.082,0.195c-0.023,0.061-0.043,0.123-0.059,0.186c-0.016,0.061-0.027,0.121-0.037,0.186
		c-0.012,0.072-0.02,0.143-0.021,0.215c-0.002,0.031-0.01,0.063-0.01,0.094c0,0.029,0.006,0.057,0.008,0.084
		c0.004,0.072,0.012,0.143,0.021,0.213c0.01,0.063,0.02,0.123,0.035,0.184c0.016,0.063,0.035,0.123,0.057,0.184
		c0.021,0.063,0.045,0.123,0.072,0.182s0.059,0.113,0.092,0.17c0.031,0.055,0.064,0.107,0.102,0.158
		c0.039,0.053,0.082,0.104,0.125,0.152c0.043,0.047,0.086,0.094,0.133,0.137s0.096,0.082,0.146,0.121
		c0.057,0.043,0.113,0.084,0.174,0.119c0.023,0.016,0.045,0.035,0.07,0.049c0.029,0.016,0.059,0.023,0.088,0.039
		c0.064,0.031,0.129,0.059,0.195,0.082c0.063,0.023,0.125,0.043,0.189,0.059c0.059,0.016,0.117,0.027,0.178,0.037
		c0.076,0.012,0.15,0.02,0.227,0.023c0.029,0,0.057,0.008,0.088,0.008h7.736C18.844,44.609,15.719,47.164,12,47.164z M52,47.164
		c-4.412,0-8-3.588-8-8c0-2.289,0.971-4.352,2.518-5.811l3.73,6.775c0.363,0.662,1.047,1.035,1.754,1.035
		c0.326,0,0.656-0.078,0.963-0.248c0.967-0.531,1.32-1.748,0.787-2.717l-3.73-6.777c0.633-0.162,1.295-0.258,1.979-0.258
		c4.41,0,8,3.59,8,8C60,43.576,56.41,47.164,52,47.164z"/>
</g>
<g>
</g>
<g>
</g>
<g>
</g>
<g>
</g>
<g>
</g>
<g>
</g>
<g>
</g>
<g>
</g>
<g>
</g>
<g>
</g>
<g>
</g>
<g>
</g>
<g>
</g>
<g>
</g>
<g>
</g>
</svg>
