<svg width="240" height="240" viewBox="0 0 240 240" fill="none" xmlns="http://www.w3.org/2000/svg">
<g id="Doughnut">
<path id="01" d="M204.853 35.1472C225.057 55.3509 237.388 82.1006 239.63 110.585C241.872 139.069 233.877 167.419 217.082 190.534C200.288 213.65 175.797 230.014 148.014 236.684C120.231 243.354 90.9796 239.892 65.5214 226.921L87.3128 184.153C102.588 191.935 120.138 194.013 136.808 190.011C153.478 186.009 168.173 176.19 178.249 162.32C188.326 148.451 193.123 131.441 191.778 114.351C190.433 97.2603 183.034 81.2105 170.912 69.0883L204.853 35.1472Z" fill="#F4BE37"/>
<path id="02" d="M68.0864 228.19C49.8633 219.445 34.1441 206.24 22.3875 189.798L61.4325 161.879C68.4865 171.744 77.918 179.667 88.8518 184.914L68.0864 228.19Z" fill="#FF9F40"/>
<path id="04" d="M23.2171 190.944C5.3177 166.526 -2.68988 136.243 0.799747 106.169C4.28937 76.0943 19.0183 48.4504 42.0335 28.7792C65.0488 9.10809 94.6491 -1.13624 124.9 0.100091C155.151 1.33642 183.817 13.962 205.15 35.4457L171.09 69.2674C158.29 56.3772 141.091 48.8019 122.94 48.0601C104.789 47.3183 87.0293 53.4649 73.2201 65.2675C59.411 77.0702 50.5736 93.6566 48.4798 111.701C46.3861 129.746 51.1906 147.915 61.9303 162.566L23.2171 190.944Z" fill="#0D2535"/>
</g>
</svg>
