<?xml version="1.0" encoding="utf-8"?>
<!-- Svg Vector Icons : http://www.onlinewebfonts.com/icon -->
<!DOCTYPE svg PUBLIC "-//W3C//DTD SVG 1.1//EN" "http://www.w3.org/Graphics/SVG/1.1/DTD/svg11.dtd">
<svg version="1.1" xmlns="http://www.w3.org/2000/svg" xmlns:xlink="http://www.w3.org/1999/xlink" x="0px" y="0px" viewBox="0 0 256 256" enable-background="new 0 0 256 256" xml:space="preserve">
<metadata> Svg Vector Icons : http://www.onlinewebfonts.com/icon </metadata>
<g><g><g><path fill="#000000" d="M79.5,10.5c-17.6,2.7-28.7,12-32.1,26.6c-2.9,12.6-2.2,21.2,4.1,47.8l4.4,18.9l-2.6,3.8c-9.9,14.5-15.4,34.6-14.5,52.5c1.2,23,9.4,42.2,25.1,58.5c34.1,35.4,89.7,36.7,125.4,2.9c13.9-13.1,22.7-28.9,26.7-48.1c1.7-8,1.7-25.2,0-33.8c-2.2-11-7.3-23.4-13.1-32l-2.6-3.8l4.4-19c2.4-10.5,4.8-22.3,5.2-26.2c2.4-21.1-4.3-36.6-18.5-43.6c-10.2-5-8.2-4.8-60.6-5C105,9.9,81.8,10.2,79.5,10.5z M176.9,17.4c16.8,2.7,25.2,12.3,26.5,29.7c0.6,8-0.5,15-5.8,37.8l-4.7,20.3l3.3,4.8c17.1,24.9,19.1,57.8,5.1,84.6c-9.7,18.7-27.6,33.8-47.2,40.2c-9.5,3.1-15,3.9-26,3.9s-16.5-0.8-26-3.9C78,227,58,207.2,49.9,182.8c-8.1-24.3-4.4-51.4,10-72.7l3.4-4.9l-4.7-20.3c-2.5-11.2-4.9-22.3-5.2-24.8c-2.1-14.4,0.8-27.4,7.7-34.3c4.1-4.1,12-7.6,19.2-8.6C85.1,16.6,172.8,16.8,176.9,17.4z"/><path fill="#000000" d="M93.4,31.5c-13.1,2.2-20.7,9.9-22.7,22.9c-1,6.4-0.4,11.6,2.2,23.8c2.8,12.5,3.7,13.4,10.1,9.1c12.1-8.2,29.4-13.3,45.1-13.3c15.9,0,33.2,5.1,45.2,13.4c3.1,2.2,5.9,2.6,7.1,1.1c0.4-0.5,1.7-5.1,3-10.3c2.9-12.3,3.1-23.9,0.7-30.1c-3.1-8.1-8-12.8-16.1-15.5c-4.5-1.5-5.7-1.5-37.8-1.7C112,30.9,95.4,31.1,93.4,31.5z M166.7,39.3c4.6,1.8,8.5,5.4,10.5,9.7c1.4,3.1,1.6,4.8,1.6,11c0,6.6-1.6,17.2-3,19.5c-0.3,0.5-2.7-0.4-6.6-2.5c-13.6-7-24.7-9.7-41-9.7c-16.3,0-27.3,2.7-41,9.7c-4,2.1-6.4,3-6.6,2.5c-1.4-2.4-3.1-12.8-3.1-19.5c0.1-6.2,0.3-7.9,1.7-11c2.6-5.7,7.3-9.2,14.3-10.6c1.6-0.3,18-0.5,36.4-0.4C160.1,38.1,163.8,38.2,166.7,39.3z"/><path fill="#000000" d="M130.7,99.6c-1.5,1.5-1.5,4.3,0.1,5.1c0.6,0.3,3.4,0.8,6.2,1.1c20.3,1.7,37.1,16.2,42.2,35.9c0.7,2.9,1.3,6.9,1.3,8.9c0,5.2,2.4,7.6,5.6,5.5c1.5-1,1.5-1.5,1.2-7.1c-1.5-22.9-18.3-42.7-41.5-48.7c-1.9-0.5-5.9-1.1-8.7-1.4C132.7,98.5,131.7,98.6,130.7,99.6z"/></g></g></g>
</svg>